<svg width="28" height="28" viewBox="0 0 28 28" fill="none" xmlns="http://www.w3.org/2000/svg">
<path d="M27.5835 5.75985C26.6093 6.19152 25.5628 6.48319 24.4626 6.61502C25.5978 5.93578 26.4471 4.86673 26.852 3.60735C25.7855 4.24084 24.6182 4.68675 23.401 4.92569C22.5824 4.05169 21.4982 3.4724 20.3167 3.27774C19.1352 3.08308 17.9224 3.28394 16.8667 3.84915C15.8111 4.41435 14.9715 5.31227 14.4785 6.40351C13.9854 7.49474 13.8664 8.71823 14.14 9.88402C11.9789 9.77551 9.86487 9.21383 7.93497 8.23541C6.00506 7.25699 4.30245 5.88371 2.93764 4.20469C2.47097 5.00969 2.20264 5.94302 2.20264 6.93702C2.20212 7.83185 2.42248 8.71297 2.84416 9.50221C3.26585 10.2914 3.87583 10.9644 4.61997 11.4614C3.75696 11.4339 2.91299 11.2007 2.15831 10.7812V10.8512C2.15822 12.1062 2.59234 13.3226 3.38702 14.294C4.18169 15.2654 5.28797 15.9319 6.51814 16.1805C5.71755 16.3972 4.8782 16.4291 4.06347 16.2739C4.41055 17.3537 5.08663 18.2981 5.99707 18.9746C6.9075 19.6511 8.00671 20.0261 9.14081 20.0469C7.21561 21.5582 4.83801 22.378 2.39047 22.3744C1.95692 22.3745 1.52373 22.3491 1.09314 22.2985C3.57753 23.8959 6.46954 24.7436 9.42314 24.7404C19.4215 24.7404 24.8873 16.4594 24.8873 9.27735C24.8873 9.04402 24.8815 8.80835 24.871 8.57502C25.9341 7.80616 26.8519 6.85406 27.5811 5.76335L27.5835 5.75985Z" fill="#B6CCDA"/>
</svg>
